# xmcd CD database file
#
# Track frame offsets:
#	150
#	14368
#	25751
#	41201
#	53721
#	72604
#	85576
#	98457
#	114326
#	130841
#	141828
#	160266
#	181805
#	196021
#	213885
#	229433
#	250405
#	279913
#	303582
#
# Disc length: 4241 seconds
#
# Revision: 0
# Processed by: cddbd v1.5.2PL0 Copyright (c) Steve Scherf et al.
# Submitted via: CDex 1.51
#
DISCID=00108f13
DTITLE=Lewis, Ramsey - Complete Recordings 1960-1962, CD1
DYEAR=1900
DGENRE=Jazz
TTITLE0=Little Liza Jane
TTITLE1=This Is My Night To Dream
TTITLE2=Scarlet Ribbons
TTITLE3=Here 'Tis
TTITLE4=My Ship
TTITLE5=Put Your Little Foot Right Out
TTITLE6=Solo Para Ti
TTITLE7=These Foolish Things
TTITLE8=When The Spirit Moves You
TTITLE9=A Portrait Of Jennie
TTITLE10=Old Devil Moon
TTITLE11=What's New
TTITLE12=Carmen
TTITLE13=Bei Mir Bist Du Schön
TTITLE14=I'll Remember April
TTITLE15=Delilah
TTITLE16=Folk Ballad
TTITLE17=But Not For Me
TTITLE18=C.C. Rider
EXTD=
EXTT0=
EXTT1=
EXTT2=
EXTT3=
EXTT4=
EXTT5=
EXTT6=
EXTT7=
EXTT8=
EXTT9=
EXTT10=
EXTT11=
EXTT12=
EXTT13=
EXTT14=
EXTT15=
EXTT16=
EXTT17=
EXTT18=
PLAYORDER=
